<svg width="24" height="24" viewBox="0 0 24 24" fill="none" xmlns="http://www.w3.org/2000/svg">
<path d="M2 6.57025C2 4.04621 4.04621 2 6.57025 2H17.4296C19.9538 2 22 4.04621 22 6.57025V17.4296C22 19.9538 19.9538 22 17.4296 22H6.57025C4.04621 22 2 19.9538 2 17.4296V6.57025Z" fill="black"/>
<path d="M7.3125 16.6875C7.3125 15.393 8.36184 14.3437 9.65626 14.3437H11.9999V16.6875C11.9999 17.9819 10.9507 19.0312 9.65626 19.0312C8.36184 19.0312 7.3125 17.9819 7.3125 16.6875Z" fill="#24CB71"/>
<path d="M12 4.96878V9.6562H14.3438C15.6382 9.6562 16.6875 8.60697 16.6875 7.31255C16.6875 6.01813 15.6382 4.96878 14.3438 4.96878H12Z" fill="#FF7237"/>
<path d="M14.3242 14.3437C15.6186 14.3437 16.668 13.2944 16.668 12C16.668 10.7055 15.6186 9.65622 14.3242 9.65622C13.0298 9.65622 11.9805 10.7055 11.9805 12C11.9805 13.2944 13.0298 14.3437 14.3242 14.3437Z" fill="#00B6FF"/>
<path d="M7.3125 7.31255C7.3125 8.60697 8.36184 9.65631 9.65626 9.65631H11.9999V4.96878H9.65626C8.36184 4.96878 7.3125 6.01813 7.3125 7.31255Z" fill="#FF3737"/>
<path d="M7.3125 11.9999C7.3125 13.2944 8.36184 14.3437 9.65626 14.3437H11.9999V9.65628H9.65626C8.36184 9.65628 7.3125 10.7055 7.3125 11.9999Z" fill="#874FFF"/>
</svg>
