<svg width="24" height="24" viewBox="0 0 24 24" fill="none" xmlns="http://www.w3.org/2000/svg">
<path fill-rule="evenodd" clip-rule="evenodd" d="M12 5.10001C8.93333 5.10001 7.01667 6.63334 6.25 9.70001C7.4 8.16667 8.74167 7.59167 10.275 7.97501C11.1499 8.19351 11.7751 8.82856 12.4672 9.53091C13.5947 10.6754 14.8997 12 17.75 12C20.8167 12 22.7333 10.4667 23.5 7.40001C22.35 8.93334 21.0083 9.50834 19.475 9.12501C18.6001 8.90651 17.9749 8.27145 17.2828 7.5691C16.1553 6.42464 14.8503 5.10001 12 5.10001ZM6.25 12C3.18333 12 1.26667 13.5333 0.5 16.6C1.65 15.0667 2.99167 14.4917 4.525 14.875C5.39985 15.0939 6.02511 15.7286 6.71724 16.4309C7.84467 17.5754 9.1497 18.9 12 18.9C15.0667 18.9 16.9833 17.3667 17.75 14.3C16.6 15.8333 15.2583 16.4083 13.725 16.025C12.8501 15.8065 12.2249 15.1715 11.5328 14.4691C10.4053 13.3246 9.1003 12 6.25 12Z" fill="#38BDF8"/>
</svg>
