<svg width="24" height="24" viewBox="0 0 24 24" fill="none" xmlns="http://www.w3.org/2000/svg">
<path d="M19.2422 3H4.75781C3.787 3 3 3.787 3 4.75781V19.2422C3 20.213 3.787 21 4.75781 21H19.2422C20.213 21 21 20.213 21 19.2422V4.75781C21 3.787 20.213 3 19.2422 3Z" fill="#3178C6"/>
<path d="M19.2422 3H4.75781C3.787 3 3 3.787 3 4.75781V19.2422C3 20.213 3.787 21 4.75781 21H19.2422C20.213 21 21 20.213 21 19.2422V4.75781C21 3.787 20.213 3 19.2422 3Z" fill="#3178C6"/>
<path fill-rule="evenodd" clip-rule="evenodd" d="M14.1424 17.3235V19.0835C14.4285 19.2301 14.7669 19.3401 15.1575 19.4134C15.5482 19.4868 15.9599 19.5234 16.3927 19.5234C16.8146 19.5234 17.2153 19.4831 17.5949 19.4024C17.9746 19.3218 18.3075 19.1889 18.5936 19.0037C18.8797 18.8186 19.1062 18.5765 19.2731 18.2777C19.44 17.9789 19.5234 17.6095 19.5234 17.1695C19.5234 16.8505 19.4758 16.5709 19.3804 16.3308C19.285 16.0906 19.1475 15.8771 18.9677 15.6901C18.788 15.5031 18.5725 15.3353 18.3212 15.1868C18.07 15.0383 17.7866 14.8981 17.4712 14.7661C17.2401 14.6707 17.0328 14.5782 16.8494 14.4884C16.666 14.3985 16.5101 14.3068 16.3817 14.2134C16.2533 14.1199 16.1543 14.0209 16.0846 13.9164C16.0149 13.8118 15.9801 13.6936 15.9801 13.5616C15.9801 13.4406 16.0113 13.3315 16.0736 13.2344C16.136 13.1372 16.224 13.0538 16.3377 12.9841C16.4514 12.9145 16.5908 12.8604 16.7559 12.8219C16.921 12.7834 17.1043 12.7642 17.3061 12.7642C17.4528 12.7642 17.6078 12.7752 17.771 12.7971C17.9342 12.8191 18.0984 12.8531 18.2635 12.8989C18.4285 12.9447 18.589 13.0025 18.7449 13.0721C18.9008 13.1418 19.0448 13.2225 19.1768 13.3141V11.6697C18.909 11.567 18.6165 11.4909 18.2992 11.4414C17.9819 11.3919 17.6179 11.3672 17.2071 11.3672C16.7889 11.3672 16.3927 11.4121 16.0186 11.5019C15.6445 11.5918 15.3153 11.732 15.031 11.9227C14.7467 12.1133 14.522 12.3562 14.357 12.6514C14.1919 12.9465 14.1094 13.2994 14.1094 13.7101C14.1094 14.2344 14.2607 14.6818 14.5633 15.0521C14.8659 15.4224 15.3253 15.7359 15.9416 15.9926C16.1837 16.0916 16.4093 16.1887 16.6183 16.284C16.8274 16.3794 17.0081 16.4784 17.1603 16.581C17.3125 16.6837 17.4326 16.7955 17.5207 16.9165C17.6087 17.0375 17.6527 17.175 17.6527 17.329C17.6527 17.4427 17.6252 17.5481 17.5702 17.6452C17.5152 17.7424 17.4317 17.8267 17.3198 17.8982C17.208 17.9697 17.0686 18.0256 16.9017 18.066C16.7348 18.1063 16.5395 18.1265 16.3157 18.1265C15.9342 18.1265 15.5564 18.0596 15.1823 17.9257C14.8081 17.7919 14.4615 17.5912 14.1424 17.3235ZM11.1837 12.9873H13.4414V11.543H7.14844V12.9873H9.39513V19.418H11.1837V12.9873Z" fill="white"/>
</svg>
