<svg width="24" height="24" viewBox="0 0 24 24" fill="none" xmlns="http://www.w3.org/2000/svg">
<path fill-rule="evenodd" clip-rule="evenodd" d="M22 6.6117V3.27086C21.9998 3.22078 21.9866 3.17161 21.9615 3.12826C21.9364 3.0849 21.9004 3.04887 21.8571 3.02374C21.8138 2.99862 21.7646 2.98529 21.7146 2.98508C21.6645 2.98487 21.6152 2.99778 21.5717 3.02253L19.3717 4.2792C19.2841 4.32939 19.2113 4.40183 19.1606 4.48919C19.11 4.57655 19.0833 4.67573 19.0833 4.7767V8.11753C19.0833 8.33753 19.3208 8.47586 19.5117 8.36586L21.7117 7.1092C21.7994 7.05894 21.8723 6.98637 21.9229 6.89885C21.9736 6.81133 22.0001 6.71281 22 6.6117ZM2.42917 3.02336L8.79833 6.67586C8.88509 6.72557 8.98334 6.75172 9.08333 6.75172C9.18332 6.75172 9.28157 6.72557 9.36833 6.67586L15.7375 3.02336C15.7811 2.99841 15.8304 2.98533 15.8806 2.98544C15.9308 2.98555 15.9801 2.99884 16.0236 3.02398C16.067 3.04913 16.1031 3.08524 16.1282 3.12871C16.1533 3.17219 16.1666 3.22149 16.1667 3.2717V13.2967C16.1667 13.4925 16.0667 13.6742 15.9008 13.78L12.0258 16.2409L14.6175 17.7675C14.8008 17.8759 15.03 17.8734 15.2117 17.76L19.0533 15.3617C19.0945 15.3358 19.1284 15.2999 19.1519 15.2574C19.1753 15.2148 19.1876 15.167 19.1875 15.1184V11.7142C19.1875 11.5025 19.3042 11.3092 19.4892 11.2092L21.5783 10.0875C21.622 10.0642 21.6709 10.0526 21.7204 10.0538C21.7698 10.0551 21.8182 10.0691 21.8606 10.0945C21.9031 10.1199 21.9382 10.1559 21.9626 10.1989C21.9871 10.2419 21.9999 10.2906 22 10.34V16.6159C22 16.8192 21.8917 17.0075 21.7167 17.11L15.1883 20.9367C15.0984 20.9894 14.9957 21.0165 14.8915 21.0152C14.7872 21.0139 14.6853 20.9841 14.5967 20.9292L9.63583 17.8617C9.59424 17.836 9.55993 17.8 9.53616 17.7573C9.51238 17.7145 9.49993 17.6664 9.5 17.6175V14.5975C9.5 14.5017 9.5475 14.4125 9.6275 14.3592L12.9942 12.1142C13.0727 12.0619 13.1372 11.9911 13.1818 11.9079C13.2265 11.8248 13.2499 11.7319 13.25 11.6375V7.9792C13.25 7.95896 13.2446 7.9391 13.2343 7.92164C13.2241 7.90418 13.2094 7.88975 13.1918 7.87983C13.1742 7.86991 13.1542 7.86486 13.134 7.86519C13.1138 7.86551 13.094 7.87121 13.0767 7.8817L9.37667 10.1017C9.288 10.1549 9.18657 10.1832 9.08315 10.1835C8.97972 10.1838 8.87814 10.1561 8.78917 10.1034L5.0375 7.88003C5.02009 7.86978 5.00029 7.8643 4.98008 7.86414C4.95988 7.86398 4.93999 7.86914 4.92242 7.87911C4.90485 7.88908 4.89021 7.9035 4.87998 7.92093C4.86976 7.93835 4.8643 7.95816 4.86417 7.97836V14.5892C4.86408 14.6398 4.8506 14.6895 4.8251 14.7332C4.79959 14.7769 4.76297 14.8131 4.71895 14.8381C4.67493 14.863 4.62509 14.8759 4.57448 14.8754C4.52388 14.8748 4.47432 14.8609 4.43083 14.835L2.41667 13.6267C2.15833 13.4717 2 13.1917 2 12.89V3.2717C2 3.0517 2.23833 2.91336 2.42917 3.02336Z" fill="#0073E6"/>
</svg>
