<svg width="24" height="24" viewBox="0 0 24 24" fill="none" xmlns="http://www.w3.org/2000/svg">
<g clip-path="url(#clip0_105_506)">
<mask id="mask0_105_506" style="mask-type:alpha" maskUnits="userSpaceOnUse" x="3" y="3" width="18" height="18">
<path d="M12 21C16.9706 21 21 16.9706 21 12C21 7.02944 16.9706 3 12 3C7.02944 3 3 7.02944 3 12C3 16.9706 7.02944 21 12 21Z" fill="black"/>
</mask>
<g mask="url(#mask0_105_506)">
<path d="M12 21C16.9706 21 21 16.9706 21 12C21 7.02944 16.9706 3 12 3C7.02944 3 3 7.02944 3 12C3 16.9706 7.02944 21 12 21Z" fill="black" stroke="white" stroke-width="1.33333"/>
<path d="M17.9507 18.752L9.9141 8.39999H8.3999V15.597H9.61126V9.93835L16.9998 19.4845C17.3332 19.2614 17.6508 19.0165 17.9507 18.752Z" fill="url(#paint0_linear_105_506)"/>
<path d="M15.7 8.39999H14.5V15.6H15.7V8.39999Z" fill="url(#paint1_linear_105_506)"/>
</g>
</g>
<defs>
<linearGradient id="paint0_linear_105_506" x1="13.8999" y1="14.65" x2="17.4499" y2="19.05" gradientUnits="userSpaceOnUse">
<stop stop-color="white"/>
<stop offset="1" stop-color="white" stop-opacity="0"/>
</linearGradient>
<linearGradient id="paint1_linear_105_506" x1="15.1" y1="8.39999" x2="15.0799" y2="13.6875" gradientUnits="userSpaceOnUse">
<stop stop-color="white"/>
<stop offset="1" stop-color="white" stop-opacity="0"/>
</linearGradient>
<clipPath id="clip0_105_506">
<rect width="18" height="18" fill="white" transform="translate(3 3)"/>
</clipPath>
</defs>
</svg>
