<svg width="24" height="24" viewBox="0 0 24 24" fill="none" xmlns="http://www.w3.org/2000/svg">
<path d="M12 13.7824C12.9845 13.7824 13.7826 12.9842 13.7826 11.9997C13.7826 11.0152 12.9845 10.2171 12 10.2171C11.0155 10.2171 10.2174 11.0152 10.2174 11.9997C10.2174 12.9842 11.0155 13.7824 12 13.7824Z" fill="#61DAFB"/>
<path fill-rule="evenodd" clip-rule="evenodd" d="M15.0418 3.2428C15.731 3.01982 16.4197 3.00462 17 3.3396C17.5802 3.67466 17.9116 4.27875 18.0632 4.98702C18.2146 5.69546 18.1993 6.55791 18.0479 7.50316C17.9893 7.86894 17.9083 8.25048 17.8084 8.64531C18.2008 8.75634 18.5718 8.87819 18.9183 9.01046C19.8127 9.35197 20.5671 9.76992 21.105 10.2554C21.6426 10.7407 21.9999 11.3296 22 11.9996C21.9999 12.6696 21.6426 13.2584 21.105 13.7438C20.5672 14.2293 19.8128 14.6463 18.9183 14.9879C18.5719 15.1201 18.2007 15.2419 17.8084 15.353C17.9085 15.7483 17.9892 16.1307 18.0479 16.4969C18.1993 17.4422 18.2147 18.3045 18.0632 19.013C17.9116 19.7213 17.5803 20.3254 17 20.6604C16.4197 20.9954 15.731 20.9802 15.0418 20.7572C14.3524 20.5342 13.6143 20.0891 12.8713 19.4852C12.5834 19.2512 12.2924 18.9907 12 18.7065C11.7077 18.9907 11.4174 19.2521 11.1296 19.486C10.3866 20.0898 9.64753 20.5342 8.95822 20.7572C8.26899 20.9802 7.5803 20.9946 7 20.6596C6.41984 20.3245 6.08837 19.7213 5.93682 19.013C5.78527 18.3045 5.80148 17.4423 5.95296 16.4969C6.01163 16.1307 6.09077 15.7483 6.19073 15.353C5.7987 15.242 5.42792 15.1201 5.08169 14.9879C4.18723 14.6463 3.43284 14.2293 2.89504 13.7438C2.3574 13.2584 2.00006 12.6696 2 11.9996C2.00011 11.3296 2.35745 10.7407 2.89504 10.2554C3.43285 9.76992 4.18727 9.35197 5.08169 9.01046C5.42794 8.87828 5.79866 8.75628 6.19073 8.64531C6.09089 8.25038 6.01158 7.86817 5.95296 7.50231C5.80153 6.55704 5.78533 5.69546 5.93682 4.98702C6.08834 4.27863 6.41973 3.67469 7 3.3396C7.58028 3.00463 8.26903 3.01988 8.95822 3.2428C9.64749 3.46585 10.3867 3.91023 11.1296 4.51403C11.4171 4.74776 11.7079 5.00789 12 5.29188C12.2922 5.00781 12.5836 4.74782 12.8713 4.51403C13.6142 3.91023 14.3525 3.46581 15.0418 3.2428ZM7.03397 15.5662C6.94007 15.9373 6.86513 16.2944 6.81063 16.6344C6.66899 17.5185 6.66563 18.2645 6.78685 18.8313C6.9081 19.3978 7.14188 19.738 7.43478 19.9072C7.72767 20.0762 8.1389 20.1082 8.68988 19.9301C9.24128 19.7517 9.88543 19.3755 10.5802 18.8109C10.8474 18.5937 11.1192 18.35 11.3937 18.0832C10.8212 17.464 10.251 16.7582 9.70126 15.9814C8.75326 15.8937 7.85673 15.7525 7.03397 15.5662ZM16.9652 15.5662C16.1424 15.7525 15.2459 15.8937 14.2979 15.9814C13.7482 16.7583 13.1779 17.4639 12.6055 18.0832C12.88 18.3501 13.1517 18.5936 13.419 18.8109C14.1138 19.3756 14.7578 19.7517 15.3093 19.9301C15.8607 20.1085 16.2722 20.0763 16.5652 19.9072C16.8581 19.7381 17.091 19.3977 17.2123 18.8313C17.3335 18.2645 17.3302 17.5185 17.1885 16.6344C17.134 16.2943 17.0591 15.9373 16.9652 15.5662ZM10.8349 16.0595C11.2194 16.567 11.6099 17.0347 11.9992 17.4582C12.3884 17.0347 12.7789 16.567 13.1634 16.0595C12.7815 16.0769 12.3933 16.0867 12 16.0867C11.6061 16.0867 11.2173 16.077 10.8349 16.0595ZM12 8.78203C11.3766 8.78203 10.7684 8.80513 10.181 8.84912C9.84923 9.33584 9.5247 9.85131 9.21298 10.3912C8.90139 10.9309 8.6176 11.4691 8.36209 11.9996C8.6177 12.5303 8.90125 13.0689 9.21298 13.6088C9.52453 14.1484 9.84942 14.6627 10.181 15.1492C10.7685 15.1932 11.3766 15.2172 12 15.2172C12.6231 15.2172 13.231 15.1932 13.8181 15.1492C14.1497 14.6627 14.4746 14.1484 14.7862 13.6088C15.0978 13.0691 15.3807 12.5301 15.6362 11.9996C15.3807 11.4692 15.0977 10.9308 14.7862 10.3912C14.4744 9.85118 14.15 9.33594 13.8181 8.84912C13.231 8.80517 12.6231 8.78203 12 8.78203ZM16.0973 13.0203C15.9212 13.3602 15.7363 13.7025 15.5394 14.0436C15.3427 14.3843 15.1391 14.715 14.9331 15.0371C15.5648 14.9579 16.1652 14.8542 16.7266 14.7289C16.5544 14.1798 16.3447 13.6073 16.0973 13.0203ZM7.90183 13.0212C7.65457 13.608 7.44387 14.1799 7.27174 14.7289C7.83308 14.8543 8.43352 14.9578 9.06522 15.0371C8.85933 14.7153 8.65714 14.384 8.4606 14.0436C8.26376 13.7026 8.07786 13.3609 7.90183 13.0212ZM6.42765 9.48176C6.05949 9.58597 5.71324 9.70035 5.39164 9.82313C4.55529 10.1425 3.90781 10.5124 3.47758 10.9007C3.04759 11.289 2.86967 11.6614 2.86957 11.9996C2.86962 12.3379 3.04752 12.7101 3.47758 13.0984C3.90779 13.4868 4.55524 13.8567 5.39164 14.1761C5.71315 14.2988 6.05959 14.4124 6.42765 14.5166C6.67762 13.7111 7.00376 12.8642 7.40166 11.9996C7.00364 11.1347 6.67764 10.2875 6.42765 9.48176ZM17.5724 9.48176C17.3222 10.2877 16.9949 11.1345 16.5966 11.9996C16.9948 12.8643 17.3213 13.711 17.5715 14.5166C17.9399 14.4123 18.2866 14.2989 18.6084 14.1761C19.4448 13.8567 20.0922 13.4868 20.5224 13.0984C20.9525 12.7101 21.1304 12.3379 21.1304 11.9996C21.1303 11.6614 20.9524 11.289 20.5224 10.9007C20.0922 10.5124 19.4447 10.1425 18.6084 9.82313C18.2868 9.70035 17.9405 9.58597 17.5724 9.48176ZM9.06607 8.96121C8.43405 9.04051 7.83334 9.14485 7.27174 9.27031C7.44386 9.81926 7.65457 10.3912 7.90183 10.978C8.0778 10.6384 8.26383 10.2973 8.4606 9.95645C8.65743 9.61552 8.85985 9.28352 9.06607 8.96121ZM14.9331 8.96121C15.1394 9.28365 15.3425 9.6154 15.5394 9.95645C15.7361 10.2971 15.9214 10.6385 16.0973 10.978C16.3447 10.391 16.5544 9.81859 16.7266 9.26946C16.1652 9.14413 15.5647 9.04043 14.9331 8.96121ZM16.5652 4.09283C16.2722 3.92372 15.8607 3.89153 15.3093 4.0699C14.7579 4.24833 14.1137 4.62365 13.419 5.18828C13.1518 5.40543 12.8798 5.6484 12.6055 5.91518C13.1781 6.53455 13.748 7.24067 14.2979 8.01776C15.2461 8.10535 16.1431 8.24511 16.966 8.43132C17.0597 8.06082 17.1341 7.70426 17.1885 7.36474C17.3301 6.4808 17.3335 5.73548 17.2123 5.16875C17.0911 4.60225 16.8581 4.26204 16.5652 4.09283ZM8.68988 4.0699C8.13867 3.8917 7.72772 3.92372 7.43478 4.09283C7.14182 4.26204 6.90808 4.60204 6.78685 5.16875C6.66567 5.73544 6.66905 6.48088 6.81063 7.36474C6.86502 7.70417 6.93947 8.06092 7.03312 8.43132C7.85601 8.24507 8.75309 8.10539 9.70126 8.01776C10.2512 7.24077 10.821 6.53446 11.3937 5.91518C11.1194 5.64853 10.8472 5.40534 10.5802 5.18828C9.88549 4.62374 9.24124 4.24827 8.68988 4.0699ZM11.9992 6.54018C11.6098 6.96375 11.2195 7.43205 10.8349 7.93964C11.2173 7.92222 11.6061 7.91246 12 7.91246C12.3933 7.91246 12.7815 7.92227 13.1634 7.93964C12.7787 7.43203 12.3886 6.96374 11.9992 6.54018Z" fill="#61DAFB"/>
</svg>
