<svg width="24" height="24" viewBox="0 0 24 24" fill="none" xmlns="http://www.w3.org/2000/svg">
<path fill-rule="evenodd" clip-rule="evenodd" d="M12 0.725861C11.696 0.725861 11.4004 0.788743 11.1388 0.936765L2.86117 5.71708C2.32549 6.02549 2 6.60846 2 7.2285V16.7716C2 17.3913 2.32549 17.9736 2.86117 18.283L5.02285 19.5308C6.07311 20.0484 6.46047 20.0404 6.9385 20.0404C8.49351 20.0404 9.38137 19.0969 9.38137 17.457V8.03693C9.38137 7.90376 9.26609 7.80844 9.13534 7.80844H8.09842C7.96555 7.80844 7.85237 7.90376 7.85237 8.03693V17.457C7.85237 18.1839 7.09526 18.9149 5.86644 18.3006L3.61688 16.9825C3.53745 16.9392 3.47628 16.8628 3.47628 16.7716V7.2285C3.47628 7.1379 3.53674 7.04589 3.61688 7.00006L11.877 2.23729C11.9543 2.19286 12.0464 2.19286 12.123 2.23729L20.3831 7.00006C20.4619 7.0473 20.5237 7.13514 20.5237 7.2285V16.7716C20.5237 16.8628 20.478 16.9561 20.4007 17L12.123 21.7628C12.052 21.805 11.9543 21.805 11.877 21.7628L9.75044 20.4974C9.68717 20.4603 9.6007 20.4631 9.53954 20.4974C8.95255 20.8302 8.84218 20.8689 8.29175 21.0598C8.15607 21.107 7.95009 21.1806 8.36204 21.4113L11.1388 23.0457C11.4032 23.1987 11.6977 23.2742 12 23.2742C12.3065 23.2742 12.5968 23.1987 12.8612 23.0457L21.1388 18.283C21.6745 17.9714 22 17.3913 22 16.7716V7.2285C22 6.60846 21.6745 6.02679 21.1388 5.71708L12.8612 0.936765C12.6018 0.788743 12.304 0.725861 12 0.725861ZM14.2144 7.54496C11.8573 7.54496 10.4534 8.5481 10.4534 10.2163C10.4534 12.026 11.8467 12.5232 14.109 12.7471C16.8155 13.012 17.0264 13.4094 17.0264 13.9421C17.0264 14.8662 16.2896 15.2602 14.5483 15.2602C12.3606 15.2602 11.8798 14.7141 11.7188 13.6258C11.6999 13.5091 11.6099 13.4149 11.4903 13.4149H10.4183C10.2861 13.4149 10.1722 13.5286 10.1722 13.6609C10.1722 15.054 10.9301 16.7014 14.5483 16.7014C17.1677 16.7014 18.6784 15.6732 18.6784 13.8718C18.6784 12.086 17.458 11.6067 14.9174 11.2708C12.3501 10.9311 12.1055 10.7649 12.1055 10.1636C12.1055 9.66731 12.3128 9.00363 14.2144 9.00363C15.9128 9.00363 16.5406 9.36991 16.7979 10.5151C16.8204 10.6227 16.9153 10.7084 17.0264 10.7084H18.0984C18.1645 10.7084 18.2285 10.6679 18.2742 10.6205C18.3192 10.5699 18.3508 10.5129 18.3445 10.4448C18.1786 8.47256 16.8633 7.54496 14.2144 7.54496Z" fill="#83CD29"/>
</svg>
