<svg width="24" height="24" viewBox="0 0 24 24" fill="none" xmlns="http://www.w3.org/2000/svg">
<path d="M3 21V3H21V21H3Z" fill="#FFD600"/>
<path d="M14.769 16.4735C15.115 17.0355 15.491 17.574 16.2875 17.574C16.9565 17.574 17.3075 17.2415 17.3075 16.7815C17.3075 16.231 16.9445 16.0355 16.2085 15.715L15.805 15.543C14.6405 15.049 13.866 14.43 13.866 13.1225C13.866 11.9175 14.7885 11.0005 16.23 11.0005C17.2565 11.0005 17.994 11.356 18.526 12.287L17.269 13.0905C16.9925 12.5965 16.6935 12.402 16.23 12.402C15.757 12.402 15.4575 12.7005 15.4575 13.0905C15.4575 13.5725 15.7575 13.7675 16.45 14.066L16.8535 14.238C18.226 14.8225 19 15.4195 19 16.7615C19 18.2075 17.858 19 16.325 19C14.8255 19 13.974 18.2475 13.5 17.316L14.769 16.4735ZM8.976 16.5145C9.229 16.9675 9.6135 17.316 10.1665 17.316C10.6955 17.316 11 17.107 11 16.2945V11H12.6665V16.5505C12.6665 18.234 11.69 19 10.264 19C8.9755 19 8.0455 18.127 7.6665 17.316L8.976 16.5145Z" fill="#000001"/>
</svg>
