<svg width="24" height="24" viewBox="0 0 24 24" fill="none" xmlns="http://www.w3.org/2000/svg">
<path d="M22 11.7082C21.9935 11.5883 21.9448 11.4745 21.8624 11.387C21.7801 11.2995 21.6694 11.2441 21.55 11.2303L20.3173 11.0308C20.2619 11.0218 20.2108 10.9949 20.1719 10.9545C20.1329 10.9141 20.108 10.8621 20.1009 10.8063C20.0774 10.6549 20.0529 10.4977 20.0193 10.3486C20.0084 10.2944 20.0148 10.2382 20.0374 10.1877C20.0601 10.1373 20.0979 10.0952 20.1457 10.0674L21.2409 9.45918C21.3496 9.40373 21.4342 9.31028 21.4785 9.19655C21.5228 9.08286 21.5238 8.9568 21.4812 8.84234L21.2913 8.31832C21.2497 8.20356 21.1672 8.10811 21.0596 8.05038C20.952 7.99264 20.8269 7.97665 20.7082 8.00535L19.4798 8.2457C19.4249 8.25556 19.3683 8.24778 19.318 8.2235C19.2678 8.19931 19.2265 8.15977 19.2 8.11062C19.1284 7.97648 19.0505 7.83996 18.9693 7.70582C18.9397 7.65803 18.9259 7.6022 18.9297 7.54621C18.9335 7.49017 18.9547 7.43673 18.9903 7.39328L19.8077 6.44906C19.8907 6.35994 19.9384 6.24366 19.9419 6.12189C19.9454 6.00008 19.9043 5.88129 19.8264 5.78754L19.4697 5.35918C19.3921 5.26522 19.2824 5.20331 19.1617 5.18554C19.0411 5.16777 18.9182 5.19536 18.8168 5.263L17.7413 5.90871C17.6936 5.93732 17.6381 5.94974 17.5827 5.94434C17.5274 5.93885 17.4753 5.91581 17.4341 5.8784C17.3154 5.7741 17.1937 5.67363 17.0798 5.58082C17.0361 5.54634 17.0044 5.49876 16.9896 5.4451C16.9747 5.39141 16.9773 5.33439 16.9971 5.28226L17.4423 4.10922C17.4908 3.99727 17.4965 3.87142 17.4582 3.75561C17.4201 3.63975 17.3406 3.54196 17.2351 3.48082L16.75 3.19766C16.6444 3.13677 16.52 3.11696 16.4007 3.14209C16.2813 3.16717 16.1755 3.23541 16.1034 3.33371L15.3173 4.32121C15.289 4.36415 15.2467 4.39587 15.1975 4.41096C15.1484 4.42606 15.0956 4.42359 15.048 4.40391C15.0187 4.39192 14.7707 4.29047 14.5779 4.22606C14.525 4.2088 14.479 4.17508 14.4466 4.12984C14.4143 4.0846 14.3973 4.03022 14.398 3.97461L14.4168 2.72121C14.4235 2.59885 14.3854 2.47823 14.3096 2.38193C14.2337 2.28562 14.1254 2.22032 14.0048 2.19817L13.4543 2.10199C13.3344 2.08129 13.211 2.1048 13.1071 2.16819C13.0032 2.23163 12.9259 2.33057 12.8894 2.44672L12.4807 3.63949C12.4622 3.69247 12.4271 3.73805 12.3808 3.76964C12.3344 3.80123 12.2791 3.81713 12.2231 3.81496H11.7543C11.6987 3.81611 11.6441 3.7997 11.5983 3.76802C11.5526 3.7363 11.518 3.69102 11.4995 3.63852L11.0928 2.45246C11.057 2.3355 10.9798 2.23554 10.8756 2.17138C10.7715 2.10722 10.6475 2.08324 10.5269 2.10391L9.97547 2.20008C9.85574 2.22206 9.74796 2.28677 9.67228 2.38214C9.5966 2.47755 9.55813 2.59719 9.56395 2.71883L9.58317 3.97653C9.58355 4.03295 9.56574 4.08801 9.53223 4.1335C9.49886 4.17899 9.45158 4.21245 9.39758 4.22891C9.28751 4.27172 9.04856 4.36305 8.93993 4.40344C8.84376 4.43805 8.73895 4.40008 8.65434 4.30246L7.87258 3.34094C7.8009 3.24204 7.69512 3.17312 7.57564 3.14749C7.45621 3.12185 7.33147 3.14124 7.22547 3.20199L6.74184 3.48227C6.63513 3.54353 6.55485 3.64213 6.5165 3.75901C6.47815 3.87593 6.4844 4.00289 6.53415 4.11547L6.97883 5.28562C6.99826 5.33783 7.00081 5.39481 6.98615 5.44855C6.97148 5.50225 6.94031 5.55004 6.89712 5.58516C6.78032 5.68133 6.66055 5.7775 6.54133 5.88422C6.50039 5.92129 6.44873 5.94421 6.39371 5.94974C6.33887 5.95527 6.28351 5.94306 6.23602 5.91496L5.17305 5.2568C5.07101 5.19039 4.94822 5.16351 4.82773 5.18129C4.70724 5.19897 4.59741 5.25999 4.51876 5.35297L4.16349 5.78035C4.08453 5.87342 4.04274 5.9923 4.04601 6.11432C4.04929 6.23626 4.09746 6.35276 4.18126 6.44141L5.00239 7.38469C5.03887 7.42716 5.06064 7.48027 5.06455 7.53618C5.06837 7.59204 5.05422 7.64765 5.02403 7.69481C4.9418 7.8255 4.86344 7.96305 4.79231 8.10055C4.76574 8.15004 4.72407 8.18979 4.67352 8.21415C4.62288 8.23851 4.56587 8.24625 4.51059 8.23613L3.28415 7.9991C3.1654 7.97044 3.04027 7.98656 2.93262 8.04425C2.82497 8.10199 2.74231 8.19731 2.70048 8.31207L2.50817 8.83515C2.46565 8.94974 2.46668 9.07589 2.51098 9.18975C2.55528 9.30365 2.6398 9.39727 2.74856 9.45293L3.84376 10.0611C3.89299 10.0883 3.93207 10.1308 3.95507 10.1821C3.97803 10.2335 3.98368 10.2909 3.97114 10.3457L3.95962 10.4068C3.93462 10.5409 3.91153 10.6678 3.88942 10.8029C3.88177 10.858 3.85694 10.9093 3.81842 10.9493C3.7799 10.9894 3.72968 11.0162 3.67501 11.026L2.43989 11.2255C2.31914 11.2404 2.20787 11.2987 2.12692 11.3895C2.04597 11.4804 2.00086 11.5976 2.00001 11.7193V12.2761C1.99929 12.3982 2.04397 12.5162 2.12531 12.6074C2.20664 12.6985 2.31893 12.7562 2.4404 12.7693L3.67501 12.9684C3.73049 12.9774 3.78156 13.0041 3.82054 13.0445C3.85953 13.0851 3.8844 13.1371 3.89133 13.1929C3.91489 13.3448 3.93942 13.5015 3.97309 13.6505C3.98394 13.7048 3.97756 13.761 3.9549 13.8114C3.93224 13.8619 3.8944 13.9039 3.84665 13.9318L2.75192 14.5409C2.64316 14.5964 2.5586 14.6899 2.51429 14.8036C2.46995 14.9173 2.46897 15.0434 2.51153 15.1578L2.70383 15.6818C2.74559 15.7965 2.82811 15.8919 2.93572 15.9496C3.04329 16.0073 3.16833 16.0234 3.28704 15.9948L4.5154 15.7568C4.57033 15.7468 4.62701 15.7545 4.67726 15.7788C4.72756 15.8031 4.76884 15.8427 4.7952 15.8919C4.86731 16.0265 4.94469 16.1625 5.02599 16.2967C5.05562 16.3445 5.06952 16.4003 5.06574 16.4564C5.06191 16.5124 5.04065 16.5659 5.00481 16.6092L4.18751 17.5529C4.10349 17.6414 4.05473 17.7575 4.05026 17.8795C4.04584 18.0013 4.0861 18.1206 4.16349 18.215L4.51969 18.6434C4.59724 18.7374 4.70702 18.7994 4.82769 18.8172C4.94826 18.8349 5.07122 18.8073 5.17258 18.7395L6.24809 18.0938C6.2958 18.0653 6.35137 18.0528 6.40668 18.0582C6.462 18.0636 6.51408 18.0868 6.55528 18.1241C6.6745 18.2284 6.79571 18.3289 6.90957 18.4217C6.95332 18.4563 6.98491 18.5038 6.99984 18.5574C7.01485 18.611 7.01238 18.6681 6.99278 18.7203L6.54712 19.8933C6.49865 20.0053 6.49299 20.1311 6.53117 20.2469C6.56939 20.3628 6.64882 20.4606 6.7543 20.5217L7.24035 20.8025C7.34597 20.8634 7.47033 20.8833 7.58959 20.8583C7.70893 20.8333 7.81484 20.7652 7.88704 20.6669L8.6827 19.6886C8.74996 19.6053 8.85579 19.5683 8.93415 19.6001C9.10141 19.6693 9.21348 19.7082 9.41204 19.7746C9.46493 19.7919 9.51089 19.8256 9.54333 19.8708C9.57577 19.916 9.5929 19.9704 9.59231 20.0261L9.57305 21.2784C9.56659 21.4008 9.60481 21.5213 9.68062 21.6175C9.75647 21.7138 9.86467 21.7792 9.98508 21.8015L10.5356 21.8976C10.6555 21.9186 10.779 21.8951 10.883 21.8317C10.9869 21.7683 11.0642 21.6692 11.1005 21.5529L11.5091 20.3621C11.5276 20.3091 11.5626 20.2635 11.609 20.2318C11.6554 20.2002 11.7108 20.1844 11.7668 20.1866H12.2355C12.2912 20.1854 12.3459 20.2018 12.3916 20.2335C12.4374 20.2652 12.472 20.3106 12.4904 20.3631L12.8976 21.5491C12.9292 21.6521 12.9929 21.7422 13.0794 21.8064C13.1659 21.8704 13.2707 21.9051 13.3784 21.9053C13.4071 21.9054 13.4357 21.9028 13.4639 21.8976L14.0154 21.8015C14.1352 21.7795 14.2429 21.7148 14.3186 21.6195C14.3943 21.5241 14.4328 21.4044 14.4269 21.2828L14.4077 20.0251C14.4073 19.9697 14.4246 19.9156 14.457 19.8707C14.4894 19.8257 14.5353 19.7922 14.588 19.7751C14.7726 19.713 14.9024 19.663 15.0164 19.6188L15.0452 19.6078C15.1942 19.5563 15.2663 19.6188 15.3082 19.6707L16.1134 20.6626C16.1856 20.7607 16.2915 20.8288 16.4107 20.8537C16.5299 20.8788 16.6541 20.859 16.7596 20.7982L17.2437 20.5178C17.3497 20.4567 17.4293 20.3587 17.4675 20.2425C17.5058 20.1263 17.4998 20.0002 17.451 19.888L17.0068 18.7179C16.9871 18.6657 16.9844 18.6087 16.9991 18.555C17.0136 18.5012 17.0447 18.4534 17.088 18.4183C17.2048 18.3222 17.3245 18.226 17.4438 18.1193C17.485 18.0822 17.537 18.0592 17.5922 18.0539C17.6474 18.0485 17.7029 18.061 17.7505 18.0895L18.8269 18.7337C18.929 18.8002 19.0517 18.8272 19.1723 18.8095C19.2928 18.7918 19.4026 18.7306 19.4813 18.6376L19.837 18.2096C19.916 18.1166 19.9578 17.9978 19.9545 17.8758C19.9512 17.7538 19.9031 17.6374 19.8193 17.5486L18.999 16.603C18.9626 16.5604 18.9408 16.5074 18.9369 16.4515C18.933 16.3957 18.9472 16.34 18.9774 16.2928C19.0596 16.1625 19.138 16.0251 19.2091 15.8871C19.2358 15.8378 19.2775 15.798 19.3281 15.7737C19.3786 15.7494 19.4356 15.7416 19.4909 15.7515L20.7159 15.9905C20.8346 16.0191 20.9598 16.0031 21.0674 15.9453C21.1751 15.8876 21.2577 15.7923 21.2995 15.6775L21.4894 15.1544C21.5319 15.0399 21.5309 14.9139 21.4866 14.8001C21.4423 14.6863 21.3577 14.5927 21.249 14.5371L20.1529 13.928C20.1043 13.9005 20.0659 13.8582 20.0433 13.8071C20.0207 13.7561 20.0151 13.6992 20.0274 13.6448L20.0389 13.5837C20.0639 13.4496 20.087 13.3227 20.1091 13.1875C20.1168 13.1325 20.1416 13.0813 20.1801 13.0413C20.2186 13.0012 20.2688 12.9744 20.3236 12.9645L21.5587 12.7654C21.6797 12.7508 21.7913 12.6926 21.8726 12.6016C21.9538 12.5107 21.9991 12.3932 22 12.2712V11.7082ZM8.42071 16.2275C8.36081 16.3316 8.277 16.4201 8.17624 16.4856C8.07552 16.5511 7.96064 16.5918 7.84112 16.6043C7.7216 16.6168 7.60077 16.6007 7.4887 16.5575C7.37654 16.5142 7.27632 16.4449 7.19618 16.3553C6.11306 15.1578 5.51502 13.5996 5.51876 11.9849C5.5225 10.3701 6.12773 8.81475 7.21638 7.62219C7.29695 7.53265 7.39763 7.46356 7.51013 7.42057C7.62258 7.37767 7.74371 7.36203 7.8634 7.37499C7.98317 7.388 8.09809 7.42929 8.19869 7.4954C8.29937 7.56156 8.38283 7.65063 8.44235 7.75535L10.637 11.6183C10.7029 11.7336 10.7376 11.864 10.7376 11.9967C10.7376 12.1294 10.7029 12.2599 10.637 12.375L8.42071 16.2275ZM12 18.4957C11.5425 18.4959 11.0863 18.4475 10.6389 18.3515C10.5224 18.3255 10.4137 18.2724 10.3215 18.1965C10.2293 18.1205 10.1563 18.024 10.1084 17.9146C10.0605 17.8052 10.0391 17.6861 10.0458 17.5669C10.0525 17.4477 10.0872 17.3317 10.1471 17.2284L12.3586 13.3823C12.4252 13.2664 12.5211 13.1701 12.6368 13.1032C12.7524 13.0362 12.8837 13.001 13.0173 13.001H17.4471C17.5665 13.0008 17.6841 13.0287 17.7906 13.0826C17.8972 13.1363 17.9895 13.2144 18.0602 13.3106C18.1309 13.4067 18.178 13.5181 18.1976 13.6358C18.2172 13.7535 18.2088 13.8742 18.1731 13.988C17.3322 16.5996 14.8846 18.4957 12 18.4957ZM12.3611 10.6159L10.1731 6.763C10.1138 6.6596 10.0797 6.54357 10.0735 6.42453C10.0674 6.30544 10.0892 6.1866 10.1374 6.07746C10.1858 5.96845 10.2589 5.87227 10.3512 5.79676C10.4435 5.7213 10.5523 5.66853 10.6688 5.64285C11.1065 5.55059 11.5526 5.5042 12 5.50437C14.8846 5.50437 17.3322 7.4005 18.1716 10.0135C18.2073 10.1274 18.2157 10.248 18.1961 10.3658C18.1766 10.4834 18.1295 10.5949 18.0588 10.691C17.9881 10.7871 17.8957 10.8652 17.7892 10.919C17.6827 10.9728 17.565 11.0007 17.4457 11.0005H13.0226C12.8881 11.0008 12.756 10.9653 12.6398 10.8977C12.5236 10.8302 12.4273 10.7329 12.3611 10.6159Z" fill="white"/>
</svg>
