<svg width="24" height="24" viewBox="0 0 24 24" fill="none" xmlns="http://www.w3.org/2000/svg">
<path d="M20.0244 2.94286C20.0257 2.96374 20.0263 2.98466 20.0263 3.00558V20.9945C20.0263 21.5498 19.5761 22 19.0208 22C19.0057 22 18.9907 21.9997 18.9757 21.999L5.55364 21.3962C5.0309 21.3727 4.61354 20.9522 4.59391 20.4293L3.97435 3.92089C3.95389 3.37568 4.37194 2.91362 4.91647 2.87959L15.923 2.19128L15.8273 4.45832C15.8263 4.48445 15.832 4.51025 15.8439 4.53324L15.8577 4.5552C15.9078 4.62121 16.0019 4.63412 16.0679 4.58406L16.9483 3.91619L17.6919 4.502C17.7198 4.52395 17.7545 4.53531 17.79 4.53407C17.8728 4.53118 17.9375 4.46172 17.9347 4.37893L17.8515 2.07081L18.9581 2.00199C19.5123 1.96735 19.9897 2.38859 20.0244 2.94286Z" fill="#FF4785"/>
<mask id="mask0_105_561" style="mask-type:luminance" maskUnits="userSpaceOnUse" x="3" y="2" width="18" height="20">
<path d="M4.59391 20.4293L3.97435 3.92089C3.95389 3.37568 4.37194 2.91362 4.91647 2.87959L18.9581 2.00199C19.5123 1.96735 19.9897 2.38859 20.0244 2.94286C20.0257 2.96374 20.0263 2.98466 20.0263 3.00558V20.9945C20.0263 21.5498 19.5761 22 19.0208 22C19.0057 22 18.9907 21.9997 18.9757 21.999L5.55364 21.3962C5.0309 21.3727 4.61354 20.9522 4.59391 20.4293Z" fill="white"/>
</mask>
<g mask="url(#mask0_105_561)">
<path d="M15.8273 4.45831L15.9232 2.19082L17.8515 2.0704L17.9346 4.37892C17.9375 4.46171 17.8727 4.53117 17.7899 4.53406C17.7545 4.5353 17.7197 4.52393 17.6919 4.50198L16.9482 3.91618L16.0678 4.58404C16.0018 4.63411 15.9077 4.62119 15.8576 4.55519C15.8366 4.52741 15.8258 4.49315 15.8273 4.45831Z" fill="white"/>
</g>
<mask id="mask1_105_561" style="mask-type:luminance" maskUnits="userSpaceOnUse" x="3" y="2" width="18" height="20">
<path d="M4.59391 20.4293L3.97435 3.92089C3.95389 3.37568 4.37194 2.91362 4.91647 2.87959L18.9581 2.00199C19.5123 1.96735 19.9897 2.38859 20.0244 2.94286C20.0257 2.96374 20.0263 2.98466 20.0263 3.00558V20.9945C20.0263 21.5498 19.5761 22 19.0208 22C19.0057 22 18.9907 21.9997 18.9757 21.999L5.55364 21.3962C5.0309 21.3727 4.61354 20.9522 4.59391 20.4293Z" fill="white"/>
</mask>
<g mask="url(#mask1_105_561)">
<path d="M13.361 9.53829C13.361 9.9295 15.9961 9.742 16.3499 9.4672C16.3499 6.80311 14.9204 5.40317 12.3028 5.40317C9.68513 5.40317 8.21851 6.82489 8.21851 8.95747C8.21851 12.6717 13.231 12.7428 13.231 14.7688C13.231 15.3374 12.9525 15.6751 12.3399 15.6751C11.5416 15.6751 11.226 15.2674 11.2631 13.8812C11.2631 13.5805 8.21851 13.4868 8.12569 13.8812C7.88932 17.2404 9.98217 18.2094 12.377 18.2094C14.6976 18.2094 16.517 16.9724 16.517 14.7332C16.517 10.7524 11.4302 10.859 11.4302 8.88638C11.4302 8.08667 12.0243 7.98004 12.377 7.98004C12.7483 7.98004 13.4167 8.04548 13.361 9.53829Z" fill="white"/>
</g>
</svg>
