<svg width="24" height="24" viewBox="0 0 24 24" fill="none" xmlns="http://www.w3.org/2000/svg">
<path fill-rule="evenodd" clip-rule="evenodd" d="M4.00341 15.7301C3.79994 15.4092 3.79686 15.0004 3.99548 14.6764L11.4738 2.4777C11.8898 1.79922 12.8941 1.85854 13.2273 2.58127L20.0591 17.4011C20.3126 17.951 20.0208 18.5979 19.4408 18.772L8.81343 21.9602C8.38584 22.0884 7.92513 21.9165 7.68611 21.5395L4.00341 15.7301ZM12.3367 6.0445C12.4087 5.68564 12.9004 5.63389 13.0456 5.96988L17.7581 16.8743C17.8468 17.0797 17.7364 17.3164 17.5221 17.3804L10.1794 19.5723C9.9095 19.6528 9.65096 19.417 9.70642 19.1408L12.3367 6.0445Z" fill="white"/>
</svg>
